<?xml version="1.0" standalone="no"?>
<!DOCTYPE svg PUBLIC "-//W3C//DTD SVG 20010904//EN"
 "http://www.w3.org/TR/2001/REC-SVG-20010904/DTD/svg10.dtd">
<svg version="1.0" xmlns="http://www.w3.org/2000/svg"
 width="256.000000pt" height="256.000000pt" viewBox="0 0 256.000000 256.000000"
 preserveAspectRatio="xMidYMid meet">

<g transform="translate(0.000000,256.000000) scale(0.100000,-0.100000)"
fill="#000000" stroke="none">
<path d="M1 2018 l1 -543 18 80 c114 499 519 891 1020 985 l95 18 -567 1 -568
1 1 -542z"/>
<path d="M1504 2544 c108 -20 176 -40 276 -82 392 -166 674 -504 764 -915 13
-55 14 -3 15 476 l1 537 -567 -1 c-524 -1 -562 -2 -489 -15z"/>
<path d="M1055 1852 c-114 -284 -224 -548 -242 -586 -41 -82 -109 -157 -167
-186 -56 -27 -146 -27 -205 0 -24 11 -45 19 -47 17 -2 -1 6 -31 16 -66 24 -76
26 -206 5 -277 -8 -27 -15 -50 -15 -50 0 -1 27 -4 60 -6 49 -3 67 -10 97 -36
162 -136 271 -199 431 -251 126 -41 189 -49 89 -12 -144 55 -252 144 -288 238
-5 15 -10 55 -10 88 0 51 13 99 79 285 108 304 257 713 360 989 8 21 11 16 39
-50 17 -41 133 -319 259 -619 222 -532 228 -547 228 -615 1 -84 -19 -131 -80
-191 -46 -44 -153 -104 -222 -125 -65 -19 -42 -22 29 -4 160 42 326 127 432
222 72 65 109 83 172 83 25 0 45 1 45 3 0 1 -7 24 -15 51 -26 86 -17 243 20
338 6 15 3 16 -27 7 -46 -13 -145 -14 -194 0 -76 21 -155 94 -201 186 -12 22
-114 274 -228 560 -114 286 -208 521 -209 522 -1 2 -96 -230 -211 -515z"/>
<path d="M595 1876 c-72 -31 -111 -116 -102 -223 8 -99 63 -163 141 -163 42 0
105 30 127 61 26 38 30 106 6 142 -23 35 -85 54 -132 40 -41 -13 -48 2 -15 32
16 14 30 17 75 12 l55 -6 0 49 c0 39 -4 52 -19 60 -27 14 -100 12 -136 -4z
m85 -235 c7 -15 6 -23 -6 -35 -17 -18 -24 -19 -48 -10 -16 6 -22 45 -9 57 13
14 53 6 63 -12z"/>
<path d="M1740 1814 l0 -56 85 7 85 7 -70 -122 c-39 -67 -70 -124 -70 -126 0
-3 36 -4 81 -2 l80 3 60 132 c40 91 59 145 59 173 l0 40 -155 0 -155 0 0 -56z"/>
<path d="M1190 1681 l-25 -7 -3 -147 -3 -147 41 0 40 0 0 49 c0 48 0 49 36 56
71 13 104 80 73 149 -21 45 -92 66 -159 47z m90 -105 c0 -20 -16 -36 -36 -36
-2 0 -4 14 -4 30 0 23 4 30 20 30 14 0 20 -7 20 -24z"/>
<path d="M1178 1363 c-16 -4 -18 -20 -18 -149 l0 -144 35 0 c35 0 35 0 35 45
0 60 23 60 40 1 l12 -43 38 9 38 10 -18 42 c-17 41 -17 43 1 65 12 15 19 39
19 68 0 36 -6 50 -29 74 -26 25 -36 29 -83 28 -29 -1 -61 -3 -70 -6z m100 -95
c2 -19 -3 -30 -17 -38 -20 -10 -21 -8 -21 30 0 34 3 41 18 38 10 -2 18 -14 20
-30z"/>
<path d="M1 543 l-1 -543 563 1 c309 1 551 3 537 6 -539 82 -960 471 -1080
998 l-18 80 -1 -542z"/>
<path d="M2546 1024 c-10 -73 -73 -250 -122 -345 -175 -331 -509 -580 -884
-659 l-85 -18 553 -1 552 -1 0 535 c0 294 -2 535 -4 535 -2 0 -6 -21 -10 -46z"/>
<path d="M1211 1034 c-32 -23 -51 -74 -51 -139 0 -111 64 -170 145 -133 21 9
25 18 25 54 l0 42 -29 -11 c-29 -11 -61 -5 -61 12 0 6 17 13 38 16 81 13 82
14 82 45 0 41 -29 109 -51 120 -27 15 -72 12 -98 -6z m57 -105 c-27 -6 -35 6
-17 27 12 14 14 14 26 -3 12 -16 11 -19 -9 -24z"/>
<path d="M1216 733 c-4 -4 -27 -6 -51 -4 -31 2 -46 -2 -49 -11 -2 -7 -7 -70
-10 -140 l-6 -128 45 0 45 0 0 93 c0 50 4 99 10 107 17 27 23 -17 17 -111 l-7
-90 38 7 c20 4 39 9 42 11 3 3 7 47 8 99 2 52 8 94 13 94 5 0 9 -45 9 -101 l0
-100 43 3 42 3 3 87 c4 110 -10 165 -45 181 -20 9 -30 8 -53 -5 -24 -14 -29
-14 -34 -2 -6 14 -47 19 -60 7z"/>
<path d="M472 527 c154 -151 346 -262 533 -308 119 -30 308 -36 431 -14 213
37 416 145 595 316 l74 71 -65 -51 c-153 -120 -249 -174 -393 -223 -76 -25
-109 -31 -187 -31 -61 -1 -104 3 -120 12 -37 20 -80 63 -80 79 0 8 -10 0 -23
-19 -36 -55 -87 -74 -192 -73 -187 1 -362 82 -607 283 -35 28 -23 14 34 -42z"/>
</g>
</svg>
